<?xml version="1.0" encoding="utf-8"?>
<svg version="1.1" id="Layer_2" xmlns="http://www.w3.org/2000/svg" xmlns:xlink="http://www.w3.org/1999/xlink" x="0px" y="0px"
	 viewBox="0 0 1000 1000" style="enable-background:new 0 0 1000 1000;" xml:space="preserve">
<style type="text/css">
	.st0{fill:#0087FE;}
	.st1{fill:#009CFD;}
	.st2{fill:#0093FE;}
	.st3{fill:#FFFFFF;}
</style>
<g>
	<path class="st0" d="M460.97,475.51c0.44,0.27,2.64,1.68,3.01,1.91c0.03,0.02,1.71,1.13,2.36,1.59c2.04,1.43,3.97,2.89,5.77,4.37
		c0.45,0.36,2.07,1.75,2.43,2.07c0.41,0.36,2.35,2.15,2.63,2.43c1.67,1.59,3.21,3.21,4.64,4.83c0.27,0.3,4.16,5.14,4.44,5.52
		c0.56,0.76,1.11,1.53,1.62,2.29c0.26,0.38,1.73,2.65,2.18,3.41c0.24,0.38,1.72,3,1.92,3.37c0.38,0.73,1.47,2.91,1.64,3.27
		c0.67,1.44,1.28,2.85,1.82,4.21c0.27,0.68,0.52,1.37,0.76,2.03c0.02,0.04,0.04,0.09,0.05,0.13c0.22,0.62,0.43,1.23,0.62,1.83
		c0.01,0.03,0.02,0.05,0.03,0.08c0.4,1.25,0.75,2.46,1.07,3.61c0.08,0.3,0.16,0.6,0.23,0.89c0.35,1.4,0.63,2.71,0.86,3.92
		c0.15,0.79,0.27,1.55,0.37,2.25c0.04,0.22,0.21,1.49,0.25,1.88c0.09,0.78,0.16,1.48,0.2,2.08c0.03,0.45,0.09,1.65,0.09,1.83
		c0.01,0.13,0.01,0.25,0.01,0.35c-0.01,0.41,0,0.63,0,0.63V950c-16.49,0-32.98-4.26-47.76-12.8L145.25,759.96
		c-29.55-17.06-47.76-48.59-47.76-82.72V322.76c0-13.96,3.05-27.47,8.67-39.74L460.97,475.51z"/>
	<path class="st1" d="M902.51,322.76v354.49c0,34.12-18.21,65.65-47.76,82.72L547.76,937.2C532.98,945.74,516.49,950,500,950v-413.7
		c0,0-0.01-0.22,0-0.63c0-0.1,0-0.22,0.01-0.35c0-0.18,0.01-0.39,0.02-0.62c0.01-0.35,0.04-0.75,0.07-1.21
		c0.05-0.61,0.11-1.31,0.2-2.08c0.04-0.39,0.09-0.8,0.15-1.23c0.03-0.21,0.07-0.43,0.1-0.65c0.1-0.7,0.22-1.46,0.37-2.25
		c0.23-1.22,0.51-2.52,0.86-3.92c0.07-0.29,0.15-0.59,0.23-0.89c0.31-1.15,0.66-2.36,1.07-3.61c0.01-0.03,0.02-0.05,0.03-0.08
		c0.2-0.6,0.41-1.22,0.62-1.83c0.01-0.04,0.03-0.09,0.05-0.13c0.24-0.66,0.49-1.35,0.76-2.03c0.54-1.37,1.15-2.77,1.82-4.21
		c0.68-1.44,1.43-2.9,2.25-4.38c0.21-0.37,0.42-0.74,0.63-1.13c0.21-0.37,0.43-0.74,0.67-1.13c0.45-0.75,0.92-1.51,1.42-2.26
		c0.25-0.38,0.5-0.76,0.76-1.15c0.51-0.76,1.06-1.53,1.62-2.29c0.28-0.38,0.57-0.77,0.86-1.16c0.28-0.38,0.58-0.77,0.89-1.16
		c0.3-0.38,0.61-0.76,0.94-1.15c0.31-0.38,0.63-0.77,0.97-1.16l0.78-0.9c1.44-1.62,2.98-3.24,4.65-4.83
		c0.28-0.28,0.57-0.55,0.86-0.82c0.18-0.17,0.36-0.34,0.54-0.5c0.4-0.37,0.81-0.74,1.23-1.11c0.36-0.32,0.73-0.64,1.11-0.96
		c0.43-0.37,0.87-0.74,1.33-1.12c1.8-1.49,3.73-2.95,5.77-4.37c33.05-23.09,331.74-180.97,360.18-196
		C899.46,295.29,902.51,308.8,902.51,322.76z"/>
	<path class="st2" d="M106.16,283.01c8.12-17.75,21.63-32.89,39.09-42.97L452.24,62.8c29.55-17.06,65.97-17.06,95.51,0
		l306.99,177.24c17.46,10.08,30.97,25.23,39.09,42.97c-28.44,15.02-327.13,172.9-360.18,196c-2.04,1.43-6.67,5.11-7.1,5.49
		c-0.37,0.31-1.93,1.69-2.33,2.06c-0.18,0.16-4.61,4.53-6.05,6.15c-0.27,0.3-2.38,2.83-2.68,3.21c-0.31,0.38-1.49,1.93-1.76,2.31
		c-0.57,0.76-2.14,3.06-2.38,3.44c-0.5,0.75-2.52,4.14-2.72,4.51c-0.21,0.37-2.08,4.02-2.25,4.38c-0.68,1.44-1.29,2.85-1.82,4.21
		c-0.28,0.68-1.25,3.39-1.44,3.99c-0.01,0.03-0.79,2.53-1.1,3.69c-0.08,0.3-0.86,3.61-1.1,4.82c-0.15,0.79-0.27,1.55-0.37,2.25
		c-0.04,0.22-0.21,1.49-0.25,1.88c-0.09,0.78-0.16,1.48-0.2,2.08c-0.03,0.45-0.06,0.85-0.07,1.21c-0.01,0.23-0.02,0.44-0.02,0.62
		c-0.01,0.13-0.01,0.25-0.01,0.35c0-0.1,0-0.22-0.01-0.35c0-0.18-0.01-0.39-0.02-0.62c-0.01-0.35-0.04-0.75-0.07-1.21
		c-0.04-0.6-0.11-1.3-0.2-2.08c-0.04-0.39-0.21-1.66-0.25-1.88c-0.1-0.7-0.88-4.78-1.24-6.17c-0.07-0.29-1.32-4.55-1.33-4.58
		c-0.19-0.6-1.16-3.31-1.44-3.99c-0.53-1.37-1.14-2.77-1.82-4.21c-0.17-0.36-2.04-4.01-2.25-4.38c-0.2-0.37-1.07-1.87-1.31-2.25
		c-0.44-0.75-1.91-3.03-2.18-3.41c-0.5-0.76-2.18-3.07-2.48-3.45c-0.28-0.38-3.31-4.06-3.58-4.36c-1.44-1.62-2.98-3.24-4.64-4.83
		c-0.28-0.28-4.61-4.14-5.07-4.5c-1.8-1.49-3.73-2.95-5.77-4.37c-0.67-0.47-4.93-3.23-5.37-3.5L106.16,283.01z"/>
</g>
<path id="C" class="st3" d="M611.8,550c-14.77,0-28.04,6.41-37.2,16.6l-0.01-0.01C556.28,587.09,529.65,600,500,600
	c-55.23,0-100-44.77-100-100c0-55.23,44.77-100,100-100c29.65,0,56.28,12.91,74.6,33.41v-0.01l0,0c9.15,10.19,22.43,16.6,37.2,16.6
	c27.61,0,50-22.39,50-50c0-13.09-5.03-24.99-13.26-33.91c-25.88-28.69-59.96-49.84-98.54-59.77v-56.51
	c0-27.51-22.3-49.81-49.81-49.81h0c-27.72,0-50.19,22.47-50.19,50.19v56.11C363.74,328.5,300,406.81,300,500s63.74,171.5,150,193.7
	v56.49c0,27.51,22.3,49.81,49.81,49.81h0c27.72,0,50.19-22.47,50.19-50.19v-56.13c38.39-9.89,72.31-30.88,98.15-59.36
	c0.53-0.56,1.04-1.13,1.54-1.71c0.2-0.22,0.4-0.44,0.6-0.66l-0.01-0.01c7.2-8.66,11.53-19.79,11.53-31.94
	C661.8,572.39,639.42,550,611.8,550z"/>
</svg>
