<svg width="146" height="34" fill="none" xmlns="http://www.w3.org/2000/svg"><path fill-rule="evenodd" clip-rule="evenodd" d="M43.27 9.273V0h3.092v34H43.27V18.546h-3.089V34H37.09V18.546H3.091v3.09H34V34h-3.092v-9.273H15.454V34h-3.092v-9.273h-3.09V34h-3.09v-9.273h-3.09V34H0V0h3.092v15.454h3.09V0h3.09v15.454H43.272v-3.092H12.361V0h3.092v9.273h15.454V0H34v9.273h3.09V0h3.091v9.273h3.09zm23.977 6.445v-3.356h2.518v9.23h-2.518v-3.356h-7.55v3.356H57.18v-9.23h2.518v3.356h7.549zm47.822 2.518h-2.518l2.518-2.518v-3.355h-2.518v3.355h-7.549v-3.355h-2.518v9.229h2.518v-3.356h7.549v3.356h2.518v-3.356zm-31.882-5.874H72.28v9.23h2.518v-3.356h7.552v3.355h2.518v-9.229h-1.68zm-8.389 3.356v-.84h7.552v.84h-7.552zm25.168-3.356v2.518H89.899v4.193h10.067v2.518H87.38v-9.229h12.585zm30.202 2.518v-2.518h-12.585v9.23h12.585v-2.518h-10.067v-.838h10.067v-2.518h-10.067v-.838h10.067zm12.583 3.356v-5.874h2.518v9.23h-2.518l-7.549-5.874v5.873h-2.518v-9.229h2.518l7.549 5.874z" fill="#222223"></path></svg>
